<svg width="166" height="47" viewBox="0 0 166 47" fill="none" xmlns="http://www.w3.org/2000/svg">
<mask id="mask0_1_5170" style="mask-type:alpha" maskUnits="userSpaceOnUse" x="0" y="0" width="35" height="47">
<path fill-rule="evenodd" clip-rule="evenodd" d="M0 0.384033H34.8683V46.6044H0V0.384033Z" fill="white"/>
</mask>
<g mask="url(#mask0_1_5170)">
<path fill-rule="evenodd" clip-rule="evenodd" d="M32.5679 4.71414L26.1313 0.997785C23.9364 -0.269415 21.104 0.489753 19.8368 2.6847L0.613752 35.9794C-0.653448 38.1744 0.10572 41.0071 2.30066 42.2743L8.73689 45.9907C10.9318 47.2579 13.7646 46.4987 15.0318 44.3038L34.2545 11.0087C35.5217 8.81372 34.7629 5.98134 32.5679 4.71414Z" fill="white"/>
</g>
<path fill-rule="evenodd" clip-rule="evenodd" d="M59.6317 6.34133L53.1951 2.62498C51.0002 1.35778 48.1678 2.11695 46.9006 4.31189L28.6172 35.9796C27.35 38.1738 28.1092 41.0069 30.3037 42.2741L36.7403 45.9905C38.9353 47.2577 41.7676 46.4985 43.0348 44.3036L61.3186 12.6359C62.5854 10.4409 61.8267 7.60853 59.6317 6.34133Z" fill="#8D91A2"/>
<mask id="mask1_1_5170" style="mask-type:alpha" maskUnits="userSpaceOnUse" x="55" y="30" width="17" height="17">
<path fill-rule="evenodd" clip-rule="evenodd" d="M55.0674 30.2749H71.7184V46.9259H55.0674V30.2749Z" fill="white"/>
</mask>
<g mask="url(#mask1_1_5170)">
<path fill-rule="evenodd" clip-rule="evenodd" d="M55.0674 38.6004C55.0674 43.1984 58.7949 46.9259 63.3929 46.9259C67.9909 46.9259 71.7184 43.1984 71.7184 38.6004C71.7184 34.002 67.9909 30.2749 63.3929 30.2749C58.7949 30.2749 55.0674 34.002 55.0674 38.6004Z" fill="white"/>
</g>
<path fill-rule="evenodd" clip-rule="evenodd" d="M64.854 21.8161C64.854 26.4663 68.6237 30.2361 73.274 30.2361C77.9246 30.2361 81.6939 26.4663 81.6939 21.8161C81.6939 17.1659 77.9246 13.3958 73.274 13.3958C68.6237 13.3958 64.854 17.1659 64.854 21.8161Z" fill="white"/>
<path fill-rule="evenodd" clip-rule="evenodd" d="M116.826 5.2905V13.3956H115.549V5.2905C115.549 5.27706 115.535 5.26362 115.521 5.26362C115.508 5.26362 115.508 5.26362 115.495 5.27706L110.844 12.7639C110.629 13.154 110.199 13.3956 109.742 13.3956H109.446C108.976 13.3956 108.559 13.154 108.33 12.7639L103.653 5.27706C103.653 5.26362 103.639 5.26362 103.639 5.26362C103.639 5.26362 103.626 5.27706 103.626 5.2905V13.3956H102.349V5.2905C102.349 4.57818 102.927 3.98682 103.639 3.98682C104.11 3.98682 104.527 4.25562 104.741 4.63194L109.419 12.1188C109.433 12.1322 109.433 12.1322 109.446 12.1322H109.742L109.755 12.1188L114.419 4.6185C114.661 4.25562 115.038 3.98682 115.521 3.98682C116.234 4.00026 116.826 4.56474 116.826 5.2905Z" fill="white"/>
<path fill-rule="evenodd" clip-rule="evenodd" d="M129.217 3.98682L123.665 8.98688V13.3956H122.388V8.98688L116.824 3.98682H118.719L123.033 7.84448L127.321 3.98682H129.217Z" fill="white"/>
<path fill-rule="evenodd" clip-rule="evenodd" d="M97.632 28.2602H108.412V29.5239H97.632C96.1532 29.5239 94.9705 28.3277 94.957 26.8624V20.1147H96.2338V26.8624C96.2338 27.6281 96.8525 28.2602 97.632 28.2602Z" fill="#8D91A2"/>
<path fill-rule="evenodd" clip-rule="evenodd" d="M111.032 24.1877H123.196V25.4645H111.032V26.8626C111.032 27.6287 111.65 28.2596 112.416 28.2596H123.196V29.5238H112.416C110.951 29.5238 109.755 28.3276 109.755 26.8626V22.7896C109.755 21.3246 110.951 20.128 112.416 20.115H123.196V21.3918H112.416C111.65 21.3918 111.032 22.0235 111.032 22.7896V24.1877Z" fill="#8D91A2"/>
<path fill-rule="evenodd" clip-rule="evenodd" d="M137.967 20.1147V21.3915H127.187C126.421 21.3915 125.802 22.0232 125.802 22.7897V26.8624C125.802 27.6281 126.421 28.2602 127.187 28.2602H135.319C136.085 28.2602 136.703 27.6281 136.703 26.8624V25.4646H130.628V24.1871H137.967V26.8624C137.967 28.3277 136.784 29.5239 135.319 29.5239H127.187C125.721 29.5239 124.539 28.3277 124.539 26.8624V22.7897C124.539 21.3243 125.721 20.1282 127.187 20.1147H137.967Z" fill="#8D91A2"/>
<path fill-rule="evenodd" clip-rule="evenodd" d="M147.912 25.2093L145.734 21.5801C145.68 21.4587 145.546 21.3919 145.411 21.3919H144.538C144.403 21.3919 144.283 21.4587 144.215 21.5801L142.025 25.2093H147.912ZM146.823 20.9211L151.971 29.5239H150.493L148.665 26.4861H141.272L139.444 29.5239H137.965L143.127 20.9211C143.409 20.4373 143.947 20.1147 144.538 20.1147H145.411C146.016 20.1282 146.528 20.4373 146.823 20.9211Z" fill="#8D91A2"/>
<mask id="mask2_1_5170" style="mask-type:alpha" maskUnits="userSpaceOnUse" x="151" y="20" width="15" height="10">
<path fill-rule="evenodd" clip-rule="evenodd" d="M151.97 20.1147H165.424V29.5239H151.97V20.1147Z" fill="white"/>
</mask>
<g mask="url(#mask2_1_5170)">
<path fill-rule="evenodd" clip-rule="evenodd" d="M154.645 28.2602H165.425V29.5239H154.645C153.166 29.5239 151.983 28.3277 151.97 26.8624V20.1147H153.247V26.8624C153.247 27.6281 153.865 28.2602 154.645 28.2602Z" fill="#8D91A2"/>
</g>
<path fill-rule="evenodd" clip-rule="evenodd" d="M99.7427 38.9172C99.7427 38.1512 99.0976 37.5195 98.3315 37.5195H88.8283V41.3368H98.3315C99.0976 41.3368 99.7427 40.6917 99.7427 39.9387V38.9172ZM101.006 38.9172V39.9387C101.006 41.4175 99.8103 42.6136 98.3315 42.6136H88.8283V45.6514H87.5649V36.2427H98.3315C99.8103 36.2557 101.006 37.4527 101.006 38.9172Z" fill="white"/>
<path fill-rule="evenodd" clip-rule="evenodd" d="M114.54 38.9172C114.54 38.1512 113.909 37.5195 113.129 37.5195H103.626V41.3368H113.129C113.909 41.3368 114.54 40.6917 114.54 39.9387V38.9172ZM115.804 38.9172V39.9387C115.804 41.3368 114.729 42.4792 113.358 42.6002L115.428 45.6514H113.895L111.839 42.6136H103.626V45.6514H102.349V36.2427H113.129C114.608 36.2557 115.804 37.4527 115.804 38.9172Z" fill="white"/>
<path fill-rule="evenodd" clip-rule="evenodd" d="M129.324 38.9172C129.311 38.1512 128.693 37.5195 127.927 37.5195H119.808C119.042 37.5195 118.423 38.1512 118.41 38.9172V42.9896C118.423 43.7564 119.042 44.3881 119.808 44.3881H127.927C128.693 44.3881 129.311 43.7564 129.324 42.9896V38.9172ZM130.588 38.9172V42.9896C130.588 44.4553 129.405 45.6514 127.927 45.6514H119.808C118.343 45.6514 117.146 44.4553 117.146 42.9896V38.9172C117.146 37.4527 118.343 36.2557 119.808 36.2427H127.927C129.405 36.2557 130.588 37.4527 130.588 38.9172Z" fill="white"/>
</svg>
